<svg xmlns="http://www.w3.org/2000/svg" xmlns:xlink="http://www.w3.org/1999/xlink" xmlns:sketch="http://www.bohemiancoding.com/sketch/ns" viewBox="0 0 30 37.5" version="1.1" x="0px" y="0px"><title>gesture_003-double_tap-hand-touch-finger</title><desc>Created with Sketch.</desc><g stroke="none" stroke-width="1" fill="none" fill-rule="evenodd" sketch:type="MSPage"><g sketch:type="MSArtboardGroup" transform="translate(-135.000000, -45.000000)" fill="#000000"><g sketch:type="MSLayerGroup" transform="translate(141.000000, 48.000000)"><path d="M13,11 C12.5883412,11 12.2057309,11.1243714 11.8876948,11.3375886 C11.6143422,10.5585717 10.8724018,10 10,10 C9.63571286,10 9.29417337,10.0973943 9,10.2675644 L9,6 C9,4.8954305 8.1045695,4 7,4 C5.8954305,4 5,4.8954305 5,6 L5,15.7589674 L3.99035159,14.010205 C3.43806684,13.0536198 2.21488603,12.7258695 1.25830078,13.2781542 C0.301715534,13.830439 -0.0260347761,15.0536198 0.526249974,16.010205 C0.653455605,16.2305316 1.14326493,17.0780224 1.24505754,17.2552163 C2.02343745,18.6101685 2.29284849,20.9061799 3.07469032,22.262891 C4.16564949,24.1560059 5.99186015,26.6500926 6.09435421,26.7923209 C6.25579856,27.0163529 6.56828888,27.0670902 6.79232087,26.9056458 C7.01635285,26.7442014 7.06709015,26.4317111 6.90564579,26.2076791 C6.80502296,26.0680475 4.8366617,23.3283258 3.93878344,21.7602729 C3.32897957,20.6953125 2.96539314,18.2213135 2.11108295,16.7552163 C2.00835832,16.5789287 1.51948102,15.7305317 1.39227538,15.510205 C1.116133,15.0319124 1.28000816,14.420322 1.75830078,14.1441796 C2.2365934,13.8680372 2.84818381,14.0319124 3.12432619,14.510205 L4.99533647,17.7508899 C5.17040999,18.1176758 5.99999984,18.0991211 6,17.5 L6,6 C6,5.44771525 6.44771525,5 7,5 C7.55228475,5 8,5.44771525 8,6 L8,14.5 C8,14.7761424 8.22385763,15 8.5,15 C8.77614237,15 9,14.7761424 9,14.5 L9,12 C9,11.4477153 9.44771525,11 10,11 C10.5522847,11 11,11.4477153 11,12 L11,14.5 C11,14.7761424 11.2238576,15 11.5,15 C11.7761424,15 12,14.7761424 12,14.5 L12,13 C12,12.4477153 12.4477153,12 13,12 C13.5522847,12 14,12.4477153 14,13 L14,15.5 C14,15.7761424 14.2238576,16 14.5,16 C14.7761424,16 15,15.7761424 15,15.5 L15,14 C15,13.4477153 15.4477153,13 16,13 C16.5522847,13 17,13.4477153 17,14 L17,17.5 C16.9999998,20.7747192 14.9999998,23.8953247 15,26.5 C15,26.7761424 15.2238576,27 15.5,27 C15.7761424,27 16,26.7761424 16,26.5 C15.9999998,24.2555542 17.9999998,20.7874146 18,17.5 L18,14 C18,12.8954305 17.1045695,12 16,12 C15.5883412,12 15.2057309,12.1243714 14.8876948,12.3375886 C14.6143422,11.5585717 13.8724018,11 13,11 Z" sketch:type="MSShapeGroup"/><path d="M4,8.6458244 C3.37763659,7.94069119 3,7.01444647 3,6 C3,3.790861 4.790861,2 7,2 C9.209139,2 11,3.790861 11,6 C11,7.01444647 10.6223634,7.94069119 10,8.6458244 L10,6 C10,4.34314575 8.65685425,3 7,3 C5.34314575,3 4,4.34314575 4,6 L4,8.6458244 Z" sketch:type="MSShapeGroup"/><path d="M11.8003864,9.60007058 C12.5536453,8.59726585 13,7.35075879 13,6 C13,2.6862915 10.3137085,0 7,0 C3.6862915,0 1,2.6862915 1,6 C1,8.22084707 2.20659589,10.1598786 4,11.1973068 L4,10.0003662 C2.7855533,9.08815986 2,7.63581783 2,6 C2,3.23857625 4.23857625,1 7,1 C9.76142375,1 12,3.23857625 12,6 C12,7.18736529 11.58612,8.27806372 10.8947562,9.13569901 C11.2247421,9.23867266 11.5302546,9.39709886 11.8003864,9.60007058 Z" sketch:type="MSShapeGroup"/></g></g></g><text x="0" y="45" fill="#000000" font-size="5px" font-weight="bold" font-family="'Helvetica Neue', Helvetica, Arial-Unicode, Arial, Sans-serif">Created by Pham Thi Dieu Linh</text><text x="0" y="50" fill="#000000" font-size="5px" font-weight="bold" font-family="'Helvetica Neue', Helvetica, Arial-Unicode, Arial, Sans-serif">from the Noun Project</text></svg>