<svg xmlns="http://www.w3.org/2000/svg" xmlns:xlink="http://www.w3.org/1999/xlink" xmlns:sketch="http://www.bohemiancoding.com/sketch/ns" viewBox="0 0 30 37.5" version="1.1" x="0px" y="0px"><title>gesture_011-swipe-hand-touch-finger</title><desc>Created with Sketch.</desc><g stroke="none" stroke-width="1" fill="none" fill-rule="evenodd" sketch:type="MSPage"><g sketch:type="MSArtboardGroup" transform="translate(-45.000000, -90.000000)" fill="#000000"><g sketch:type="MSLayerGroup" transform="translate(46.000000, 95.000000)"><path d="M24,9 C23.5883412,9 23.2057309,9.12437141 22.8876948,9.33758861 C22.6143422,8.5585717 21.8724018,8 21,8 C20.6357129,8 20.2941734,8.09739429 20,8.26756439 L20,4 C20,2.8954305 19.1045695,2 18,2 C16.8954305,2 16,2.8954305 16,4 L16,13.7589674 L14.9903516,12.010205 C14.4380668,11.0536198 13.214886,10.7258695 12.2583008,11.2781542 C11.3017155,11.830439 10.9739652,13.0536198 11.52625,14.010205 C11.6534556,14.2305316 12.1432649,15.0780224 12.2450575,15.2552163 C13.0234375,16.6101685 13.2928485,18.9061799 14.0746903,20.262891 C15.1656495,22.1560059 16.9918602,24.6500926 17.0943542,24.7923209 C17.2557986,25.0163529 17.5682889,25.0670902 17.7923209,24.9056458 C18.0163529,24.7442014 18.0670902,24.4317111 17.9056458,24.2076791 C17.805023,24.0680475 15.8366617,21.3283258 14.9387834,19.7602729 C14.3289796,18.6953125 13.9653931,16.2213135 13.1110829,14.7552163 C13.0083583,14.5789287 12.519481,13.7305317 12.3922754,13.510205 C12.116133,13.0319124 12.2800082,12.420322 12.7583008,12.1441796 C13.2365934,11.8680372 13.8481838,12.0319124 14.1243262,12.510205 L15.9953365,15.7508899 C16.17041,16.1176758 16.9999998,16.0991211 17,15.5 L17,4 C17,3.44771525 17.4477153,3 18,3 C18.5522847,3 19,3.44771525 19,4 L19,12.5 C19,12.7761424 19.2238576,13 19.5,13 C19.7761424,13 20,12.7761424 20,12.5 L20,10 C20,9.44771525 20.4477153,9 21,9 C21.5522847,9 22,9.44771525 22,10 L22,12.5 C22,12.7761424 22.2238576,13 22.5,13 C22.7761424,13 23,12.7761424 23,12.5 L23,11 C23,10.4477153 23.4477153,10 24,10 C24.5522847,10 25,10.4477153 25,11 L25,13.5 C25,13.7761424 25.2238576,14 25.5,14 C25.7761424,14 26,13.7761424 26,13.5 L26,12 C26,11.4477153 26.4477153,11 27,11 C27.5522847,11 28,11.4477153 28,12 L28,15.5 C27.9999998,18.7747192 25.9999998,21.8953247 26,24.5 C26,24.7761424 26.2238576,25 26.5,25 C26.7761424,25 27,24.7761424 27,24.5 C26.9999998,22.2555542 28.9999998,18.7874146 29,15.5 L29,12 C29,10.8954305 28.1045695,10 27,10 C26.5883412,10 26.2057309,10.1243714 25.8876948,10.3375886 C25.6143422,9.5585717 24.8724018,9 24,9 Z" sketch:type="MSShapeGroup"/><path d="M6.64644661,6.64644661 C6.84170876,6.45118446 7.15829124,6.45118446 7.35355339,6.64644661 C7.54881554,6.84170876 7.54881554,7.15829124 7.35355339,7.35355339 L5.35355339,9.35355339 C5.15829124,9.54881554 4.84170876,9.54881554 4.64644661,9.35355339 L2.64644661,7.35355339 C2.45118446,7.15829124 2.45118446,6.84170876 2.64644661,6.64644661 C2.84170876,6.45118446 3.15829124,6.45118446 3.35355339,6.64644661 L4.5,7.79289322 L4.5,7.10542736e-15 C4.5,-0.276142375 4.72385763,-0.5 5,-0.5 C5.27614237,-0.5 5.5,-0.276142375 5.5,7.10542736e-15 L5.5,7.79574587 L6.64644661,6.64644661 Z" sketch:type="MSShapeGroup" transform="translate(5.000000, 4.500000) rotate(-270.000000) translate(-5.000000, -4.500000) "/><path d="M11.6464466,4.64644661 C11.8417088,4.45118446 12.1582912,4.45118446 12.3535534,4.64644661 C12.5488155,4.84170876 12.5488155,5.15829124 12.3535534,5.35355339 L10.3535534,7.35355339 C10.1582912,7.54881554 9.84170876,7.54881554 9.64644661,7.35355339 L7.64644661,5.35355339 C7.45118446,5.15829124 7.45118446,4.84170876 7.64644661,4.64644661 C7.84170876,4.45118446 8.15829124,4.45118446 8.35355339,4.64644661 L9.5,5.79289322 L9.5,-2 C9.5,-2.27614237 9.72385763,-2.5 10,-2.5 C10.2761424,-2.5 10.5,-2.27614237 10.5,-2 L10.5,5.79574587 L11.6464466,4.64644661 Z" sketch:type="MSShapeGroup" transform="translate(10.000000, 2.500000) scale(-1, 1) rotate(-270.000000) translate(-10.000000, -2.500000) "/></g></g></g><text x="0" y="45" fill="#000000" font-size="5px" font-weight="bold" font-family="'Helvetica Neue', Helvetica, Arial-Unicode, Arial, Sans-serif">Created by Pham Thi Dieu Linh</text><text x="0" y="50" fill="#000000" font-size="5px" font-weight="bold" font-family="'Helvetica Neue', Helvetica, Arial-Unicode, Arial, Sans-serif">from the Noun Project</text></svg>