<svg xmlns="http://www.w3.org/2000/svg" xmlns:xlink="http://www.w3.org/1999/xlink" xmlns:sketch="http://www.bohemiancoding.com/sketch/ns" viewBox="0 0 30 37.5" version="1.1" x="0px" y="0px"><title>gesture_002-tap-hand-touch-finger</title><desc>Created with Sketch.</desc><g stroke="none" stroke-width="1" fill="none" fill-rule="evenodd" sketch:type="MSPage"><g sketch:type="MSArtboardGroup" transform="translate(-90.000000, -45.000000)" fill="#000000"><g sketch:type="MSLayerGroup" transform="translate(96.000000, 50.000000)"><path d="M13,9 C12.5883412,9 12.2057309,9.12437141 11.8876948,9.33758861 C11.6143422,8.5585717 10.8724018,8 10,8 C9.63571286,8 9.29417337,8.09739429 9,8.26756439 L9,4 C9,2.8954305 8.1045695,2 7,2 C5.8954305,2 5,2.8954305 5,4 L5,13.7589674 L3.99035159,12.010205 C3.43806684,11.0536198 2.21488603,10.7258695 1.25830078,11.2781542 C0.301715534,11.830439 -0.0260347761,13.0536198 0.526249974,14.010205 C0.653455605,14.2305316 1.14326493,15.0780224 1.24505754,15.2552163 C2.02343745,16.6101685 2.29284849,18.9061799 3.07469032,20.262891 C4.16564949,22.1560059 5.99186015,24.6500926 6.09435421,24.7923209 C6.25579856,25.0163529 6.56828888,25.0670902 6.79232087,24.9056458 C7.01635285,24.7442014 7.06709015,24.4317111 6.90564579,24.2076791 C6.80502296,24.0680475 4.8366617,21.3283258 3.93878344,19.7602729 C3.32897957,18.6953125 2.96539314,16.2213135 2.11108295,14.7552163 C2.00835832,14.5789287 1.51948102,13.7305317 1.39227538,13.510205 C1.116133,13.0319124 1.28000816,12.420322 1.75830078,12.1441796 C2.2365934,11.8680372 2.84818381,12.0319124 3.12432619,12.510205 L4.99533647,15.7508899 C5.17040999,16.1176758 5.99999984,16.0991211 6,15.5 L6,4 C6,3.44771525 6.44771525,3 7,3 C7.55228475,3 8,3.44771525 8,4 L8,12.5 C8,12.7761424 8.22385763,13 8.5,13 C8.77614237,13 9,12.7761424 9,12.5 L9,10 C9,9.44771525 9.44771525,9 10,9 C10.5522847,9 11,9.44771525 11,10 L11,12.5 C11,12.7761424 11.2238576,13 11.5,13 C11.7761424,13 12,12.7761424 12,12.5 L12,11 C12,10.4477153 12.4477153,10 13,10 C13.5522847,10 14,10.4477153 14,11 L14,13.5 C14,13.7761424 14.2238576,14 14.5,14 C14.7761424,14 15,13.7761424 15,13.5 L15,12 C15,11.4477153 15.4477153,11 16,11 C16.5522847,11 17,11.4477153 17,12 L17,15.5 C16.9999998,18.7747192 14.9999998,21.8953247 15,24.5 C15,24.7761424 15.2238576,25 15.5,25 C15.7761424,25 16,24.7761424 16,24.5 C15.9999998,22.2555542 17.9999998,18.7874146 18,15.5 L18,12 C18,10.8954305 17.1045695,10 16,10 C15.5883412,10 15.2057309,10.1243714 14.8876948,10.3375886 C14.6143422,9.5585717 13.8724018,9 13,9 Z" sketch:type="MSShapeGroup"/><path d="M4,6.6458244 C3.37763659,5.94069119 3,5.01444647 3,4 C3,1.790861 4.790861,0 7,0 C9.209139,0 11,1.790861 11,4 C11,5.01444647 10.6223634,5.94069119 10,6.6458244 L10,4 C10,2.34314575 8.65685425,1 7,1 C5.34314575,1 4,2.34314575 4,4 L4,6.6458244 Z" sketch:type="MSShapeGroup"/></g></g></g><text x="0" y="45" fill="#000000" font-size="5px" font-weight="bold" font-family="'Helvetica Neue', Helvetica, Arial-Unicode, Arial, Sans-serif">Created by Pham Thi Dieu Linh</text><text x="0" y="50" fill="#000000" font-size="5px" font-weight="bold" font-family="'Helvetica Neue', Helvetica, Arial-Unicode, Arial, Sans-serif">from the Noun Project</text></svg>