<svg xmlns="http://www.w3.org/2000/svg" xmlns:xlink="http://www.w3.org/1999/xlink" xmlns:sketch="http://www.bohemiancoding.com/sketch/ns" viewBox="0 0 30 37.5" version="1.1" x="0px" y="0px"><title>gesture_008-swipe-hand-touch-finger</title><desc>Created with Sketch.</desc><g stroke="none" stroke-width="1" fill="none" fill-rule="evenodd" sketch:type="MSPage"><g sketch:type="MSArtboardGroup" transform="translate(-360.000000, -45.000000)" fill="#000000"><g sketch:type="MSLayerGroup" transform="translate(364.000000, 46.000000)"><path d="M18,13 C17.5883412,13 17.2057309,13.1243714 16.8876948,13.3375886 C16.6143422,12.5585717 15.8724018,12 15,12 C14.6357129,12 14.2941734,12.0973943 14,12.2675644 L14,8 C14,6.8954305 13.1045695,6 12,6 C10.8954305,6 10,6.8954305 10,8 L10,17.7589674 L8.99035159,16.010205 C8.43806684,15.0536198 7.21488603,14.7258695 6.25830078,15.2781542 C5.30171553,15.830439 4.97396522,17.0536198 5.52624997,18.010205 C5.65345561,18.2305316 6.14326493,19.0780224 6.24505754,19.2552163 C7.02343745,20.6101685 7.29284849,22.9061799 8.07469032,24.262891 C9.16564949,26.1560059 10.9918602,28.6500926 11.0943542,28.7923209 C11.2557986,29.0163529 11.5682889,29.0670902 11.7923209,28.9056458 C12.0163529,28.7442014 12.0670902,28.4317111 11.9056458,28.2076791 C11.805023,28.0680475 9.8366617,25.3283258 8.93878344,23.7602729 C8.32897957,22.6953125 7.96539314,20.2213135 7.11108295,18.7552163 C7.00835832,18.5789287 6.51948102,17.7305317 6.39227538,17.510205 C6.116133,17.0319124 6.28000816,16.420322 6.75830078,16.1441796 C7.2365934,15.8680372 7.84818381,16.0319124 8.12432619,16.510205 L9.99533647,19.7508899 C10.17041,20.1176758 10.9999998,20.0991211 11,19.5 L11,8 C11,7.44771525 11.4477153,7 12,7 C12.5522847,7 13,7.44771525 13,8 L13,16.5 C13,16.7761424 13.2238576,17 13.5,17 C13.7761424,17 14,16.7761424 14,16.5 L14,14 C14,13.4477153 14.4477153,13 15,13 C15.5522847,13 16,13.4477153 16,14 L16,16.5 C16,16.7761424 16.2238576,17 16.5,17 C16.7761424,17 17,16.7761424 17,16.5 L17,15 C17,14.4477153 17.4477153,14 18,14 C18.5522847,14 19,14.4477153 19,15 L19,17.5 C19,17.7761424 19.2238576,18 19.5,18 C19.7761424,18 20,17.7761424 20,17.5 L20,16 C20,15.4477153 20.4477153,15 21,15 C21.5522847,15 22,15.4477153 22,16 L22,19.5 C21.9999998,22.7747192 19.9999998,25.8953247 20,28.5 C20,28.7761424 20.2238576,29 20.5,29 C20.7761424,29 21,28.7761424 21,28.5 C20.9999998,26.2555542 22.9999998,22.7874146 23,19.5 L23,16 C23,14.8954305 22.1045695,14 21,14 C20.5883412,14 20.2057309,14.1243714 19.8876948,14.3375886 C19.6143422,13.5585717 18.8724018,13 18,13 Z" sketch:type="MSShapeGroup"/><path d="M6.14644661,8.14644661 C6.34170876,7.95118446 6.65829124,7.95118446 6.85355339,8.14644661 C7.04881554,8.34170876 7.04881554,8.65829124 6.85355339,8.85355339 L4.85355339,10.8535534 C4.65829124,11.0488155 4.34170876,11.0488155 4.14644661,10.8535534 L2.14644661,8.85355339 C1.95118446,8.65829124 1.95118446,8.34170876 2.14644661,8.14644661 C2.34170876,7.95118446 2.65829124,7.95118446 2.85355339,8.14644661 L4,9.29289322 L4,0.5 C4,0.223857625 4.22385763,0 4.5,0 C4.77614237,0 5,0.223857625 5,0.5 L5,9.29574587 L6.14644661,8.14644661 Z" sketch:type="MSShapeGroup" transform="translate(4.500000, 5.500000) scale(1, -1) translate(-4.500000, -5.500000) "/><path d="M4.14644661,12.1464466 C4.34170876,11.9511845 4.65829124,11.9511845 4.85355339,12.1464466 C5.04881554,12.3417088 5.04881554,12.6582912 4.85355339,12.8535534 L2.85355339,14.8535534 C2.65829124,15.0488155 2.34170876,15.0488155 2.14644661,14.8535534 L0.146446609,12.8535534 C-0.0488155365,12.6582912 -0.0488155365,12.3417088 0.146446609,12.1464466 C0.341708755,11.9511845 0.658291245,11.9511845 0.853553391,12.1464466 L2,13.2928932 L2,4.5 C2,4.22385763 2.22385763,4 2.5,4 C2.77614237,4 3,4.22385763 3,4.5 L3,13.2957459 L4.14644661,12.1464466 Z" sketch:type="MSShapeGroup"/></g></g></g><text x="0" y="45" fill="#000000" font-size="5px" font-weight="bold" font-family="'Helvetica Neue', Helvetica, Arial-Unicode, Arial, Sans-serif">Created by Pham Thi Dieu Linh</text><text x="0" y="50" fill="#000000" font-size="5px" font-weight="bold" font-family="'Helvetica Neue', Helvetica, Arial-Unicode, Arial, Sans-serif">from the Noun Project</text></svg>